# MagicaVoxel @ Ephtracy

# group
o 

# material
mtllib 0001_bulbasaur.mtl
usemtl palette

# normals
vn -1 0 0
vn 1 0 0
vn 0 0 1
vn 0 0 -1
vn 0 -1 0
vn 0 1 0

# texcoords
vt 0.275391 0.5
vt 0.732422 0.5
vt 0.896484 0.5

# verts
v 0.2 2.2 -0.5
v 0.2 2.2 -0.6
v 0.2 2.3 -0.5
v 0.2 2.3 -0.6
v 0.3 2 -0.3
v 0.3 2 -0.6
v 0.3 2.1 -0.1
v 0.3 2.1 -0.3
v 0.3 2.2 -0.1
v 0.3 2.2 -0.2
v 0.3 2.2 -0.3
v 0.3 2.2 -0.4
v 0.3 2.2 -0.5
v 0.3 2.2 -0.6
v 0.3 2.2 -0.7
v 0.3 2.3 -0.2
v 0.3 2.3 -0.3
v 0.3 2.3 -0.4
v 0.3 2.3 -0.5
v 0.3 2.3 -0.6
v 0.3 2.3 -0.7
v 0.3 2.4 -0.3
v 0.3 2.4 -0.4
v 0.3 2.4 -0.5
v 0.3 2.4 -0.6
v 0.4 2.2 -0.7
v 0.4 2.2 -0.8
v 0.4 2.3 -0.4
v 0.4 2.3 -0.5
v 0.4 2.3 -0.6
v 0.4 2.3 -0.7
v 0.4 2.3 -0.8
v 0.4 2.4 -0.4
v 0.4 2.4 -0.5
v 0.4 2.4 -0.6
v 0.4 2.4 -0.7
v 0.4 2.5 -0.5
v 0.4 2.5 -0.6
v 0.5 2.3 -0.3
v 0.5 2.3 -0.4
v 0.5 2.4 -0.3
v 0.5 2.4 -0.4
v 0.4 2.3 -0.3
v 0.4 2.3 -0.4
v 0.4 2.4 -0.3
v 0.4 2.4 -0.4
v 0.5 2.2 -0.7
v 0.5 2.2 -0.8
v 0.5 2.3 -0.4
v 0.5 2.3 -0.5
v 0.5 2.3 -0.6
v 0.5 2.3 -0.7
v 0.5 2.3 -0.8
v 0.5 2.4 -0.4
v 0.5 2.4 -0.5
v 0.5 2.4 -0.6
v 0.5 2.4 -0.7
v 0.5 2.5 -0.5
v 0.5 2.5 -0.6
v 0.6 2 -0.3
v 0.6 2 -0.6
v 0.6 2.1 -0.1
v 0.6 2.1 -0.3
v 0.6 2.2 -0.1
v 0.6 2.2 -0.2
v 0.6 2.2 -0.3
v 0.6 2.2 -0.4
v 0.6 2.2 -0.5
v 0.6 2.2 -0.6
v 0.6 2.2 -0.7
v 0.6 2.3 -0.2
v 0.6 2.3 -0.3
v 0.6 2.3 -0.4
v 0.6 2.3 -0.5
v 0.6 2.3 -0.6
v 0.6 2.3 -0.7
v 0.6 2.4 -0.3
v 0.6 2.4 -0.4
v 0.6 2.4 -0.5
v 0.6 2.4 -0.6
v 0.7 2.2 -0.5
v 0.7 2.2 -0.6
v 0.7 2.3 -0.5
v 0.7 2.3 -0.6
v 0.3 2.1 -0.1
v 0.3 2.2 -0.1
v 0.6 2.1 -0.1
v 0.6 2.2 -0.1
v 0.3 2.2 -0.2
v 0.3 2.3 -0.2
v 0.4 2.2 -0.2
v 0.4 2.3 -0.2
v 0.5 2.2 -0.2
v 0.5 2.3 -0.2
v 0.6 2.2 -0.2
v 0.6 2.3 -0.2
v 0.3 2 -0.3
v 0.3 2.1 -0.3
v 0.3 2.3 -0.3
v 0.3 2.4 -0.3
v 0.4 2.3 -0.3
v 0.4 2.4 -0.3
v 0.5 2.3 -0.3
v 0.5 2.4 -0.3
v 0.6 2 -0.3
v 0.6 2.1 -0.3
v 0.6 2.3 -0.3
v 0.6 2.4 -0.3
v 0.4 2.3 -0.4
v 0.4 2.4 -0.4
v 0.5 2.3 -0.4
v 0.5 2.4 -0.4
v 0.2 2.2 -0.5
v 0.2 2.3 -0.5
v 0.3 2.2 -0.5
v 0.3 2.3 -0.5
v 0.3 2.4 -0.5
v 0.4 2.3 -0.5
v 0.4 2.4 -0.5
v 0.4 2.5 -0.5
v 0.5 2.3 -0.5
v 0.5 2.4 -0.5
v 0.5 2.5 -0.5
v 0.6 2.2 -0.5
v 0.6 2.3 -0.5
v 0.6 2.4 -0.5
v 0.7 2.2 -0.5
v 0.7 2.3 -0.5
v 0.3 2.3 -0.4
v 0.3 2.4 -0.4
v 0.4 2.3 -0.4
v 0.4 2.4 -0.4
v 0.5 2.3 -0.4
v 0.5 2.4 -0.4
v 0.6 2.3 -0.4
v 0.6 2.4 -0.4
v 0.2 2.2 -0.6
v 0.2 2.3 -0.6
v 0.3 2 -0.6
v 0.3 2.2 -0.6
v 0.3 2.3 -0.6
v 0.3 2.4 -0.6
v 0.4 2.3 -0.6
v 0.4 2.4 -0.6
v 0.4 2.5 -0.6
v 0.5 2.3 -0.6
v 0.5 2.4 -0.6
v 0.5 2.5 -0.6
v 0.6 2 -0.6
v 0.6 2.2 -0.6
v 0.6 2.3 -0.6
v 0.6 2.4 -0.6
v 0.7 2.2 -0.6
v 0.7 2.3 -0.6
v 0.3 2.2 -0.7
v 0.3 2.3 -0.7
v 0.4 2.2 -0.7
v 0.4 2.3 -0.7
v 0.4 2.4 -0.7
v 0.5 2.2 -0.7
v 0.5 2.3 -0.7
v 0.5 2.4 -0.7
v 0.6 2.2 -0.7
v 0.6 2.3 -0.7
v 0.4 2.2 -0.8
v 0.4 2.3 -0.8
v 0.5 2.2 -0.8
v 0.5 2.3 -0.8
v 0.3 2 -0.3
v 0.6 2 -0.3
v 0.3 2 -0.6
v 0.6 2 -0.6
v 0.3 2.1 -0.1
v 0.6 2.1 -0.1
v 0.3 2.1 -0.3
v 0.6 2.1 -0.3
v 0.2 2.2 -0.5
v 0.3 2.2 -0.5
v 0.6 2.2 -0.5
v 0.7 2.2 -0.5
v 0.2 2.2 -0.6
v 0.3 2.2 -0.6
v 0.6 2.2 -0.6
v 0.7 2.2 -0.6
v 0.3 2.2 -0.7
v 0.4 2.2 -0.7
v 0.5 2.2 -0.7
v 0.6 2.2 -0.7
v 0.4 2.2 -0.8
v 0.5 2.2 -0.8
v 0.3 2.2 -0.1
v 0.6 2.2 -0.1
v 0.3 2.2 -0.2
v 0.4 2.2 -0.2
v 0.5 2.2 -0.2
v 0.6 2.2 -0.2
v 0.3 2.3 -0.2
v 0.4 2.3 -0.2
v 0.5 2.3 -0.2
v 0.6 2.3 -0.2
v 0.3 2.3 -0.3
v 0.4 2.3 -0.3
v 0.5 2.3 -0.3
v 0.6 2.3 -0.3
v 0.3 2.3 -0.4
v 0.4 2.3 -0.4
v 0.5 2.3 -0.4
v 0.6 2.3 -0.4
v 0.2 2.3 -0.5
v 0.3 2.3 -0.5
v 0.4 2.3 -0.5
v 0.5 2.3 -0.5
v 0.6 2.3 -0.5
v 0.7 2.3 -0.5
v 0.2 2.3 -0.6
v 0.3 2.3 -0.6
v 0.4 2.3 -0.6
v 0.5 2.3 -0.6
v 0.6 2.3 -0.6
v 0.7 2.3 -0.6
v 0.3 2.3 -0.7
v 0.4 2.3 -0.7
v 0.5 2.3 -0.7
v 0.6 2.3 -0.7
v 0.4 2.3 -0.8
v 0.5 2.3 -0.8
v 0.3 2.4 -0.3
v 0.4 2.4 -0.3
v 0.5 2.4 -0.3
v 0.6 2.4 -0.3
v 0.3 2.4 -0.4
v 0.4 2.4 -0.4
v 0.5 2.4 -0.4
v 0.6 2.4 -0.4
v 0.3 2.4 -0.5
v 0.4 2.4 -0.5
v 0.5 2.4 -0.5
v 0.6 2.4 -0.5
v 0.3 2.4 -0.6
v 0.4 2.4 -0.6
v 0.5 2.4 -0.6
v 0.6 2.4 -0.6
v 0.4 2.4 -0.7
v 0.5 2.4 -0.7
v 0.4 2.5 -0.5
v 0.5 2.5 -0.5
v 0.4 2.5 -0.6
v 0.5 2.5 -0.6

# faces
f 3/3/1 2/3/1 1/3/1
f 4/3/1 2/3/1 3/3/1
f 8/2/1 6/2/1 5/2/1
f 9/2/1 8/2/1 7/2/1
f 10/2/1 8/2/1 9/2/1
f 11/2/1 6/2/1 8/2/1
f 11/2/1 8/2/1 10/2/1
f 12/2/1 6/2/1 11/2/1
f 13/2/1 6/2/1 12/2/1
f 14/2/1 6/2/1 13/2/1
f 16/1/1 11/1/1 10/1/1
f 17/2/1 12/2/1 11/2/1
f 17/1/1 11/1/1 16/1/1
f 18/3/1 13/3/1 12/3/1
f 18/2/1 12/2/1 17/2/1
f 19/3/1 13/3/1 18/3/1
f 20/3/1 15/3/1 14/3/1
f 21/3/1 15/3/1 20/3/1
f 22/2/1 18/2/1 17/2/1
f 23/2/1 18/2/1 22/2/1
f 24/3/1 20/3/1 19/3/1
f 25/3/1 20/3/1 24/3/1
f 31/3/1 27/3/1 26/3/1
f 32/3/1 27/3/1 31/3/1
f 33/3/1 29/3/1 28/3/1
f 34/3/1 29/3/1 33/3/1
f 35/3/1 31/3/1 30/3/1
f 36/3/1 31/3/1 35/3/1
f 37/3/1 35/3/1 34/3/1
f 38/3/1 35/3/1 37/3/1
f 41/2/1 40/2/1 39/2/1
f 42/2/1 40/2/1 41/2/1
f 43/2/2 44/2/2 45/2/2
f 45/2/2 44/2/2 46/2/2
f 47/3/2 48/3/2 52/3/2
f 52/3/2 48/3/2 53/3/2
f 49/3/2 50/3/2 54/3/2
f 54/3/2 50/3/2 55/3/2
f 51/3/2 52/3/2 56/3/2
f 56/3/2 52/3/2 57/3/2
f 55/3/2 56/3/2 58/3/2
f 58/3/2 56/3/2 59/3/2
f 60/2/2 61/2/2 63/2/2
f 62/2/2 63/2/2 64/2/2
f 64/2/2 63/2/2 65/2/2
f 63/2/2 61/2/2 66/2/2
f 65/2/2 63/2/2 66/2/2
f 66/2/2 61/2/2 67/2/2
f 67/2/2 61/2/2 68/2/2
f 68/2/2 61/2/2 69/2/2
f 65/1/2 66/1/2 71/1/2
f 66/2/2 67/2/2 72/2/2
f 71/1/2 66/1/2 72/1/2
f 67/3/2 68/3/2 73/3/2
f 72/2/2 67/2/2 73/2/2
f 73/3/2 68/3/2 74/3/2
f 69/3/2 70/3/2 75/3/2
f 75/3/2 70/3/2 76/3/2
f 72/2/2 73/2/2 77/2/2
f 77/2/2 73/2/2 78/2/2
f 74/3/2 75/3/2 79/3/2
f 79/3/2 75/3/2 80/3/2
f 81/3/2 82/3/2 83/3/2
f 83/3/2 82/3/2 84/3/2
f 87/2/3 86/2/3 85/2/3
f 88/2/3 86/2/3 87/2/3
f 91/1/3 90/1/3 89/1/3
f 92/1/3 90/1/3 91/1/3
f 93/2/3 92/2/3 91/2/3
f 94/2/3 92/2/3 93/2/3
f 95/1/3 94/1/3 93/1/3
f 96/1/3 94/1/3 95/1/3
f 101/2/3 100/2/3 99/2/3
f 102/2/3 100/2/3 101/2/3
f 105/2/3 98/2/3 97/2/3
f 106/2/3 98/2/3 105/2/3
f 107/2/3 104/2/3 103/2/3
f 108/2/3 104/2/3 107/2/3
f 111/3/3 110/3/3 109/3/3
f 112/3/3 110/3/3 111/3/3
f 115/3/3 114/3/3 113/3/3
f 116/3/3 114/3/3 115/3/3
f 118/3/3 117/3/3 116/3/3
f 119/3/3 117/3/3 118/3/3
f 122/3/3 120/3/3 119/3/3
f 123/3/3 120/3/3 122/3/3
f 125/3/3 122/3/3 121/3/3
f 126/3/3 122/3/3 125/3/3
f 127/3/3 125/3/3 124/3/3
f 128/3/3 125/3/3 127/3/3
f 129/2/4 130/2/4 131/2/4
f 131/2/4 130/2/4 132/2/4
f 133/2/4 134/2/4 135/2/4
f 135/2/4 134/2/4 136/2/4
f 137/3/4 138/3/4 140/3/4
f 140/3/4 138/3/4 141/3/4
f 141/3/4 142/3/4 143/3/4
f 143/3/4 142/3/4 144/3/4
f 144/3/4 145/3/4 147/3/4
f 147/3/4 145/3/4 148/3/4
f 139/2/4 140/2/4 149/2/4
f 149/2/4 140/2/4 150/2/4
f 146/3/4 147/3/4 151/3/4
f 151/3/4 147/3/4 152/3/4
f 150/3/4 151/3/4 153/3/4
f 153/3/4 151/3/4 154/3/4
f 155/3/4 156/3/4 157/3/4
f 157/3/4 156/3/4 158/3/4
f 158/3/4 159/3/4 161/3/4
f 161/3/4 159/3/4 162/3/4
f 160/3/4 161/3/4 163/3/4
f 163/3/4 161/3/4 164/3/4
f 165/3/4 166/3/4 167/3/4
f 167/3/4 166/3/4 168/3/4
f 171/2/5 170/2/5 169/2/5
f 172/2/5 170/2/5 171/2/5
f 175/2/5 174/2/5 173/2/5
f 176/2/5 174/2/5 175/2/5
f 181/3/5 178/3/5 177/3/5
f 182/3/5 178/3/5 181/3/5
f 183/3/5 180/3/5 179/3/5
f 184/3/5 180/3/5 183/3/5
f 185/3/5 183/3/5 182/3/5
f 186/3/5 183/3/5 185/3/5
f 187/3/5 183/3/5 186/3/5
f 188/3/5 183/3/5 187/3/5
f 189/3/5 187/3/5 186/3/5
f 190/3/5 187/3/5 189/3/5
f 191/2/6 192/2/6 193/2/6
f 193/2/6 192/2/6 194/2/6
f 194/2/6 192/2/6 195/2/6
f 195/2/6 192/2/6 196/2/6
f 197/1/6 198/1/6 201/1/6
f 198/2/6 199/2/6 202/2/6
f 201/1/6 198/1/6 202/1/6
f 199/1/6 200/1/6 203/1/6
f 202/2/6 199/2/6 203/2/6
f 203/1/6 200/1/6 204/1/6
f 202/2/6 203/2/6 206/2/6
f 206/2/6 203/2/6 207/2/6
f 205/3/6 206/3/6 210/3/6
f 210/3/6 206/3/6 211/3/6
f 207/3/6 208/3/6 212/3/6
f 212/3/6 208/3/6 213/3/6
f 209/3/6 210/3/6 215/3/6
f 215/3/6 210/3/6 216/3/6
f 213/3/6 214/3/6 219/3/6
f 219/3/6 214/3/6 220/3/6
f 216/3/6 217/3/6 221/3/6
f 221/3/6 217/3/6 222/3/6
f 218/3/6 219/3/6 223/3/6
f 223/3/6 219/3/6 224/3/6
f 222/3/6 223/3/6 225/3/6
f 225/3/6 223/3/6 226/3/6
f 227/2/6 228/2/6 231/2/6
f 231/2/6 228/2/6 232/2/6
f 229/2/6 230/2/6 233/2/6
f 233/2/6 230/2/6 234/2/6
f 232/3/6 233/3/6 236/3/6
f 236/3/6 233/3/6 237/3/6
f 235/3/6 236/3/6 239/3/6
f 239/3/6 236/3/6 240/3/6
f 237/3/6 238/3/6 241/3/6
f 241/3/6 238/3/6 242/3/6
f 240/3/6 241/3/6 243/3/6
f 243/3/6 241/3/6 244/3/6
f 245/3/6 246/3/6 247/3/6
f 247/3/6 246/3/6 248/3/6
